<?xml version="1.0" encoding="iso-8859-1"?>
<!-- Uploaded to: SVG Repo, www.svgrepo.com, Generator: SVG Repo Mixer Tools -->
<svg height="800px" width="800px" version="1.1" id="Capa_1" xmlns="http://www.w3.org/2000/svg" xmlns:xlink="http://www.w3.org/1999/xlink" 
	 viewBox="0 0 56.359 56.359" xml:space="preserve">
<path style="fill:#ECF0F1;" d="M36.741,45.359c-3.837,0-5.221-2.559-5.72-4.334c-0.237-0.843,0.355-1.709,1.226-1.809
	C58.184,36.25,52.737,9.791,51.106,3.635c-0.143-0.541-0.835-0.69-1.187-0.255C46.515,7.584,33.406,23.497,27.148,27.13
	c-4.22,4.261-10.592,3.42-14.055,2.769c-1.574-0.296-3.199-0.296-4.718,0.209c-0.24,0.08-0.456,0.164-0.634,0.252
	c-3.542,1.75-4.408,4.981-4,5c6.207,0.291,10.507,2.893,10.877,4.219c0.25,0.895,0.588,1.773,1.138,2.522
	c0.021,0.028,0.042,0.057,0.063,0.085c1.543,2.056,4.036,3.176,6.606,3.175c1.254-0.001,2.287,0.95,2.526,2.181
	c0.115,0.588,0.268,1.148,0.488,1.734c1.624,4.328,5.901,7.085,10.524,7.085h1.777c9.5,0,9-6,9-6
	C46.741,45.234,36.741,45.359,36.741,45.359z"/>
<circle style="fill:#556080;" cx="10.241" cy="32.859" r="1.5"/>
<path style="fill:#D1D4D1;" d="M12.182,29.773c0.305,0.034,0.609,0.069,0.911,0.125c3.463,0.651,9.835,1.492,14.055-2.769l0,0
	c1.667-2.899,2.525-6.341,2.593-9.77c0.094-4.761-0.437-12.603-4.424-17.122c-0.352-0.399-1.008-0.276-1.18,0.228
	c-1.045,3.052-4.172,11.987-10.396,18.894c-1.845,2.047-3.407,4.274-3,7C10.893,27.383,11.396,28.611,12.182,29.773z"/>
</svg>