<svg xmlns="http://www.w3.org/2000/svg" viewBox="0 0 650 700" width="100%" height="100%">
  <defs>
    <linearGradient id="gradLogo" x1="0%" y1="0%" x2="0%" y2="100%">
      <stop offset="0%" stop-color="#60A5FA" />
      <stop offset="100%" stop-color="#1E3A8A" />
    </linearGradient>

    <filter id="glow" x="-20%" y="-20%" width="140%" height="140%">
      <feDropShadow dx="0" dy="8" stdDeviation="15" flood-color="#3B82F6" flood-opacity="0.4"/>
    </filter>

    <mask id="pMask">
      <rect x="0" y="0" width="650" height="700" fill="white" />
      <path d="M 150 700 L 150 140 C 150 80, 200 70, 280 70 L 320 70 C 470 70, 540 140, 540 240 C 540 340, 470 410, 320 410 L 200 410" fill="none" stroke="black" stroke-width="16" stroke-linecap="round" />
      <g transform="translate(210, 410) rotate(36.87)">
        <path d="M -96 -128 A 120 120 0 1 1 96 -128 L 0 0 Z" fill="black" stroke="black" stroke-width="2" stroke-linejoin="round" />
        <circle cx="0" cy="-200" r="45" fill="white" />
      </g>
    </mask>
  </defs>

  <g filter="url(#glow)">
    <path d="M 90 700 L 90 140 C 90 40, 160 30, 280 30 L 320 30 C 510 30, 600 100, 600 240 C 600 380, 510 450, 320 450 L 210 450 L 210 700 Z" fill="url(#gradLogo)" mask="url(#pMask)" />
  </g>
</svg>
